<?xml version="1.0" encoding="utf-8"?>
<!-- Generator: Adobe Illustrator 23.0.1, SVG Export Plug-In . SVG Version: 6.00 Build 0)  -->
<svg version="1.1" id="Layer_1" xmlns:sketch="http://www.bohemiancoding.com/sketch/ns"
	 xmlns="http://www.w3.org/2000/svg" xmlns:xlink="http://www.w3.org/1999/xlink" x="0px" y="0px" viewBox="0 0 16 22"
	 style="enable-background:new 0 0 16 22;" xml:space="preserve">
<style type="text/css">
	.st0{fill-rule:evenodd;clip-rule:evenodd;fill:#F44B00;}
</style>
<title></title>
<desc></desc>
<g id="Page-1">
	<g id="Icons-Communication" transform="translate(-128.000000, -40.000000)">
		<g id="dialpad" transform="translate(128.000000, 40.000000)">
			<path id="Shape" class="st0" d="M8,18c-1.1,0-2,0.9-2,2s0.9,2,2,2s2-0.9,2-2S9.1,18,8,18L8,18z M2,0C0.9,0,0,0.9,0,2s0.9,2,2,2
				s2-0.9,2-2S3.1,0,2,0L2,0z M2,6C0.9,6,0,6.9,0,8s0.9,2,2,2s2-0.9,2-2S3.1,6,2,6L2,6z M2,12c-1.1,0-2,0.9-2,2s0.9,2,2,2s2-0.9,2-2
				S3.1,12,2,12L2,12z M14,4c1.1,0,2-0.9,2-2s-0.9-2-2-2s-2,0.9-2,2S12.9,4,14,4L14,4z M8,12c-1.1,0-2,0.9-2,2s0.9,2,2,2s2-0.9,2-2
				S9.1,12,8,12L8,12z M14,12c-1.1,0-2,0.9-2,2s0.9,2,2,2s2-0.9,2-2S15.1,12,14,12L14,12z M14,6c-1.1,0-2,0.9-2,2s0.9,2,2,2
				s2-0.9,2-2S15.1,6,14,6L14,6z M8,6C6.9,6,6,6.9,6,8s0.9,2,2,2s2-0.9,2-2S9.1,6,8,6L8,6z M8,0C6.9,0,6,0.9,6,2s0.9,2,2,2
				s2-0.9,2-2S9.1,0,8,0L8,0z"/>
		</g>
	</g>
</g>
</svg>
